# xmcd
#
# Track frame offsets:
#	150
#	13245
#	26829
#	38288
#	50257
#	63719
#	75164
#	87158
#	99704
#	112308
#	124187
#	135822
#	146947
#	158718
#	169543
#	183085
#	195779
#	209930
#	222739
#	237294
#
# Disc length: 3349 seconds
#
# Revision: 0
# Processed by: cddbd v1.5.1PL0 Copyright (c) Steve Scherf et al.
# Submitted via: dBpowerAMP V4.0
#
DISCID=160d1314
DTITLE=Dean Martin - All Of Me
DYEAR=2002
DGENRE=Country
TTITLE0=I Got The Sun In The Morning
TTITLE1=That Lucky Old Sun
TTITLE2=Powder Your Face With Sunshine
TTITLE3=Vieni su (Say You Love Me Too)
TTITLE4=Abscence Makes The Heart Grow Fonder
TTITLE5=Johnny Get Your Girl
TTITLE6=Rain
TTITLE7=Just For Fun
TTITLE8=You Was
TTITLE9=Three Wishes
TTITLE10=Don't Rock The Boat Dear
TTITLE11=Choo 'N Gum
TTITLE12=I Still Get A Thrill
TTITLE13=Tonda Wanda Hoy
TTITLE14=My Own, My Only, My All
TTITLE15=One Foot In Heaven
TTITLE16=The Money Song
TTITLE17=All Of Me
TTITLE18=I'm Gonna Paper All My Walls
TTITLE19=Muskrat Rumble
EXTD=
EXTT0=
EXTT1=
EXTT2=
EXTT3=
EXTT4=
EXTT5=
EXTT6=
EXTT7=
EXTT8=
EXTT9=
EXTT10=
EXTT11=
EXTT12=
EXTT13=
EXTT14=
EXTT15=
EXTT16=
EXTT17=
EXTT18=
EXTT19=
PLAYORDER=
